<?xml version="1.0" encoding="UTF-8"?>
<svg id="Layer_1" data-name="Layer 1" xmlns="http://www.w3.org/2000/svg" viewBox="0 0 1681.08 290.52">
  <defs>
    <style>
      .cls-1 {
        fill: #f5f9fd;
      }
    </style>
  </defs>
  <path class="cls-1" d="M388.22,168.69c-8.43-27.01-30.14-48.66-58.05-57.94-39.89-13.25-76.25-.64-108.07,37.48-2.81,3.37-59.89,71.96-79.75,93.44-12.2,13.19-31.35,21.39-49.97,21.39-21.58,0-41.71-10.72-53.84-28.67-12.37-18.3-14.49-41.18-5.82-62.76,9.15-22.76,31.18-37.84,56.12-38.41,4.63-.11,9.09,0,13.29.3.44,14.81,2.74,52.05,34.27,56.16,14.05,1.83,27.04-5.26,33.08-18.07,5.48-11.65,5.37-29.65-11.38-45.26-7.37-6.87-16.71-12.08-27.77-15.53-.09-46.56,36.05-73.58,71.78-73.58,32.71,0,56.45,21.07,66.17,48.16.25.68,1.02.99,1.67.65,10.47-5.38,27.99-6.62,35.11-3.7,1.46.6.97-.82.53-2.34l-6.37-23.85-13.73.46c-7.33.24-12.53-7.07-9.9-13.91l2.89-10.78-28.76-21.33-10.81,10.45c-5.79,4.51-14.3,1.64-16.18-5.44l-3.51-15.23-35.8-.38-3.05,14.72c-2.04,7.04-9.5,9.82-15.19,5.21l-12.51-10.26-29.17,20.76,4.67,12.89c2.5,6.89-2.84,14.09-10.16,13.71l-13.72-.72-10.44,27.53s4.14,3.81,6.55,6.22c3.53,3.53,4.03,6.94,3.68,10.68-.24,2.57-.49,3.77-.82,5.33-4.17-.28-8.54-.39-13-.34-35.48.4-73.51,27.34-84.77,60.04-10.28,29.85-6.05,61.15,11.59,85.89,17.36,24.33,45.49,38.86,75.27,38.86,26.42,0,52.64-11.29,70.13-30.2,20.38-22.03,77.87-91.13,80.67-94.49,24.96-29.9,50.33-38.95,79.85-28.49,18.35,6.51,32.36,20.37,38.42,38.03,7.22,21.02,4.24,43.03-8.17,60.4-12.2,17.09-31.97,27.29-52.88,27.29-15.58,0-36.87-8.24-49.96-23.68-1.51-1.78-4.79-6.85-6.19-9.04-.32-.5-1.03-.51-1.38-.04l-16.19,21.89c-.33.44-.31,1.05.04,1.47,1.75,2.1,6.93,8.23,9.66,10.8,19.07,17.91,44.73,26.06,64.01,26.06,29.25,0,57.09-14.12,74.48-37.78,17.66-24.02,22.52-54.65,13.33-84.05ZM139.38,146.45c5.94,5.54,6.61,10.59,5.25,13.48-.63,1.35-1.96,2.89-4.67,2.53-2.18-.28-10.1-2.75-12.1-23.95,3.58,1.76,8.99,5.58,11.52,7.94Z"/>
  <g>
    <path class="cls-1" d="M770.64,97.05c39.87,0,72.31,29.36,72.31,65.45s-32.44,65.45-72.31,65.45-72.31-29.36-72.31-65.45,32.44-65.45,72.31-65.45M770.64,67.3c-56.37,0-102.06,42.63-102.06,95.21s45.69,95.21,102.06,95.21,102.06-42.63,102.06-95.21-45.69-95.21-102.06-95.21h0Z"/>
    <path class="cls-1" d="M985.21,97.05c39.87,0,72.31,29.36,72.31,65.45s-32.44,65.45-72.31,65.45-72.31-29.36-72.31-65.45,32.44-65.45,72.31-65.45M985.21,67.3c-56.37,0-102.06,42.63-102.06,95.21s45.69,95.21,102.06,95.21,102.06-42.63,102.06-95.21-45.69-95.21-102.06-95.21h0Z"/>
    <path class="cls-1" d="M473.59,72.86h81.55c20.42,0,38.43,3.7,54.05,11.1,15.61,7.4,27.71,17.89,36.31,31.46,8.59,13.57,12.89,29.33,12.89,47.28s-4.3,33.84-12.89,47.41c-8.6,13.57-20.7,24.06-36.31,31.46-15.61,7.4-33.63,11.1-54.05,11.1h-81.55V72.86ZM555.14,224.35c23.57,0,41.84-5.19,54.81-15.57,12.97-10.38,19.46-25.74,19.46-46.07s-6.49-35.42-19.46-45.75c-12.97-10.34-31.25-15.51-54.81-15.51h-52.71v122.9h52.71Z"/>
    <path class="cls-1" d="M1069.71,72.86h32.67l79.38,138.6,79.13-138.6h32.67l-102.48,179.82h-18.89l-102.48-179.82Z"/>
    <path class="cls-1" d="M1304.84,72.86h164.25v28.59h-135.41v45.82h117.67v28.33h-117.67v48.75h137.71v28.33h-166.55V72.86Z"/>
    <path class="cls-1" d="M1489.14,72.86h111.67c13.53,0,25.46,2.43,35.8,7.27,10.34,4.85,18.33,11.7,23.99,20.55,5.66,8.85,8.49,19.14,8.49,30.88,0,9.36-1.83,17.85-5.49,25.46-3.66,7.62-8.92,14.04-15.76,19.27-6.85,5.23-14.95,9-24.31,11.29l57.56,65.09h-38.16l-55.13-62.28h-69.81v62.28h-28.84V72.86ZM1600.81,161.82c13.78,0,23.78-2.44,29.99-7.34,6.21-4.89,9.32-12.53,9.32-22.91s-3.11-17.89-9.32-22.78c-6.21-4.89-16.21-7.34-29.99-7.34h-82.83v60.37h82.83Z"/>
  </g>
</svg>